<?xml version="1.0" standalone="no"?>
<!DOCTYPE svg PUBLIC "-//W3C//DTD SVG 20010904//EN"
 "http://www.w3.org/TR/2001/REC-SVG-20010904/DTD/svg10.dtd">
<svg version="1.0" xmlns="http://www.w3.org/2000/svg"
 width="512.000000pt" height="512.000000pt" viewBox="0 0 512.000000 512.000000"
 preserveAspectRatio="xMidYMid meet">

<g transform="translate(0.000000,512.000000) scale(0.100000,-0.100000)"
fill="#000000" stroke="none">
<path d="M2105 4223 c-11 -2 -46 -39 -77 -81 -31 -42 -81 -105 -112 -138 l-55
-61 25 -24 c35 -32 103 -130 147 -209 84 -153 129 -316 151 -545 8 -83 21
-167 29 -188 15 -34 19 -37 56 -37 40 0 42 2 71 59 48 95 119 190 213 284 83
83 88 91 81 120 -15 72 -80 166 -143 210 l-24 16 25 38 c160 234 -16 566 -297
561 -38 0 -79 -3 -90 -5z"/>
</g>
</svg>
